<svg width="65" height="65" viewBox="0 0 65 65" fill="none" xmlns="http://www.w3.org/2000/svg">
<path d="M32.5 17.875C32.5 21.7538 30.9592 25.4737 28.2164 28.2164C25.4737 30.9592 21.7538 32.5 17.875 32.5C13.9962 32.5 10.2763 30.9592 7.53356 28.2164C4.79084 25.4737 3.25 21.7538 3.25 17.875C3.25 13.9962 4.79084 10.2763 7.53356 7.53356C10.2763 4.79084 13.9962 3.25 17.875 3.25C21.7538 3.25 25.4737 4.79084 28.2164 7.53356C30.9592 10.2763 32.5 13.9962 32.5 17.875ZM19.5 11.375C19.5 10.944 19.3288 10.5307 19.024 10.226C18.7193 9.92121 18.306 9.75 17.875 9.75C17.444 9.75 17.0307 9.92121 16.726 10.226C16.4212 10.5307 16.25 10.944 16.25 11.375V16.25H11.375C10.944 16.25 10.5307 16.4212 10.226 16.726C9.92121 17.0307 9.75 17.444 9.75 17.875C9.75 18.306 9.92121 18.7193 10.226 19.024C10.5307 19.3288 10.944 19.5 11.375 19.5H16.25V24.375C16.25 24.806 16.4212 25.2193 16.726 25.524C17.0307 25.8288 17.444 26 17.875 26C18.306 26 18.7193 25.8288 19.024 25.524C19.3288 25.2193 19.5 24.806 19.5 24.375V19.5H24.375C24.806 19.5 25.2193 19.3288 25.524 19.024C25.8288 18.7193 26 18.306 26 17.875C26 17.444 25.8288 17.0307 25.524 16.726C25.2193 16.4212 24.806 16.25 24.375 16.25H19.5V11.375ZM45.5 13H35.0773C34.7586 11.8776 34.3308 10.7891 33.8 9.75H45.5C48.0859 9.75 50.5658 10.7772 52.3943 12.6057C54.2228 14.4342 55.25 16.9141 55.25 19.5V45.5C55.25 48.0859 54.2228 50.5658 52.3943 52.3943C50.5658 54.2228 48.0859 55.25 45.5 55.25H19.5C16.9141 55.25 14.4342 54.2228 12.6057 52.3943C10.7772 50.5658 9.75 48.0859 9.75 45.5V33.8C10.7813 34.3287 11.8647 34.7544 13 35.0773V45.5C13 46.7122 13.3315 47.8465 13.91 48.815L29.0843 33.904C29.9958 33.0088 31.2224 32.5073 32.5 32.5073C33.7776 32.5073 35.0042 33.0088 35.9157 33.904L51.0932 48.815C51.6874 47.8114 52.0006 46.6663 52 45.5V19.5C52 17.7761 51.3152 16.1228 50.0962 14.9038C48.8772 13.6848 47.2239 13 45.5 13ZM45.5 24.375C45.5 25.0152 45.3739 25.6491 45.1289 26.2406C44.8839 26.832 44.5248 27.3695 44.0721 27.8221C43.6195 28.2748 43.082 28.6339 42.4906 28.8789C41.8991 29.1239 41.2652 29.25 40.625 29.25C39.9848 29.25 39.3509 29.1239 38.7594 28.8789C38.168 28.6339 37.6305 28.2748 37.1779 27.8221C36.7252 27.3695 36.3661 26.832 36.1211 26.2406C35.8761 25.6491 35.75 25.0152 35.75 24.375C35.75 23.0821 36.2636 21.8421 37.1779 20.9279C38.0921 20.0136 39.3321 19.5 40.625 19.5C41.9179 19.5 43.1579 20.0136 44.0721 20.9279C44.9864 21.8421 45.5 23.0821 45.5 24.375ZM42.25 24.375C42.25 23.944 42.0788 23.5307 41.774 23.226C41.4693 22.9212 41.056 22.75 40.625 22.75C40.194 22.75 39.7807 22.9212 39.476 23.226C39.1712 23.5307 39 23.944 39 24.375C39 24.806 39.1712 25.2193 39.476 25.524C39.7807 25.8288 40.194 26 40.625 26C41.056 26 41.4693 25.8288 41.774 25.524C42.0788 25.2193 42.25 24.806 42.25 24.375ZM16.211 51.1095C17.2086 51.6935 18.344 52.0009 19.5 52H45.5C46.7025 52 47.8238 51.675 48.789 51.1095L33.6375 36.2245C33.3337 35.9268 32.9253 35.76 32.5 35.76C32.0747 35.76 31.6663 35.9268 31.3625 36.2245L16.211 51.1095Z" fill="#A5A5A5"/>
</svg>
