<svg width="150" height="44" viewBox="0 0 150 44" fill="none" xmlns="http://www.w3.org/2000/svg">
<rect x="0.5" y="0.5" width="149" height="43" rx="5.5" fill="#E9E9E9"/>
<rect x="0.5" y="0.5" width="149" height="43" rx="5.5" stroke="#D3D3D3"/>
<path d="M80.1875 22.3438C80.1953 26 77.9609 28.1562 75 28.1562C72.0234 28.1562 69.8047 25.9922 69.8125 22.3438C69.8047 18.6875 72.0234 16.5312 75 16.5312C77.9609 16.5312 80.1953 18.6875 80.1875 22.3438ZM71.8594 22.3438C71.8516 24.9297 73.1562 26.3281 75 26.3281C76.8516 26.3281 78.1484 24.9297 78.1406 22.3438C78.1484 19.7578 76.8516 18.3594 75 18.3594C73.1562 18.3594 71.8516 19.7578 71.8594 22.3438Z" fill="#383838"/>
</svg>
