<svg width="132" height="51" viewBox="0 0 132 51" fill="none" xmlns="http://www.w3.org/2000/svg">
<path d="M21.2245 18.2646C24.4778 18.2646 26.7978 19.3313 28.1845 21.4646C29.5978 23.598 30.3045 26.6646 30.3045 30.6646C30.3045 34.6913 29.5978 37.7713 28.1845 39.9046C26.7978 42.0113 24.4778 43.0646 21.2245 43.0646C17.9445 43.0646 15.5978 42.0113 14.1845 39.9046C12.7978 37.7713 12.1045 34.6913 12.1045 30.6646C12.1045 26.6646 12.7978 23.598 14.1845 21.4646C15.5978 19.3313 17.9445 18.2646 21.2245 18.2646ZM21.2245 33.6646C21.7578 33.6646 22.2245 33.558 22.6245 33.3446C23.0512 33.1313 23.3978 32.8513 23.6645 32.5046C23.9312 32.158 24.1312 31.7713 24.2645 31.3446C24.3978 30.8913 24.4645 30.4246 24.4645 29.9446C24.4645 29.4646 24.3978 28.998 24.2645 28.5446C24.1312 28.0913 23.9312 27.6913 23.6645 27.3446C23.3978 26.998 23.0512 26.718 22.6245 26.5046C22.2245 26.2913 21.7578 26.1846 21.2245 26.1846C20.1312 26.1846 19.3045 26.5713 18.7445 27.3446C18.2112 28.118 17.9445 28.9846 17.9445 29.9446C17.9445 30.4246 18.0112 30.8913 18.1445 31.3446C18.2778 31.7713 18.4778 32.158 18.7445 32.5046C19.0378 32.8513 19.3845 33.1313 19.7845 33.3446C20.1845 33.558 20.6645 33.6646 21.2245 33.6646ZM39.9651 30.0246C40.3118 31.1713 40.8851 32.1046 41.6851 32.8246C42.4851 33.5446 43.5918 33.9046 45.0051 33.9046C45.4318 33.9046 45.8851 33.878 46.3651 33.8246C46.8718 33.7446 47.3651 33.6513 47.8451 33.5446C48.3251 33.4113 48.7785 33.278 49.2051 33.1446C49.6318 32.9846 50.0051 32.838 50.3251 32.7046C50.3785 33.478 50.4051 34.3046 50.4051 35.1846C50.4318 36.038 50.4451 36.8913 50.4451 37.7446C50.4451 39.158 50.4051 40.4246 50.3251 41.5446C48.2451 42.558 45.9118 43.0646 43.3251 43.0646C42.1251 43.0646 40.9118 42.9313 39.6851 42.6646C38.4585 42.398 37.2718 41.8913 36.1251 41.1446C35.1118 40.478 34.2718 39.7046 33.6051 38.8246C32.9651 37.918 32.4585 36.998 32.0851 36.0646C31.7118 35.1046 31.4585 34.1713 31.3251 33.2646C31.1918 32.358 31.1251 31.5446 31.1251 30.8246C31.1251 29.758 31.2451 28.6513 31.4851 27.5046C31.7518 26.3313 32.1518 25.2246 32.6851 24.1846C33.2185 23.118 33.8985 22.1446 34.7251 21.2646C35.5518 20.3846 36.5251 19.6913 37.6451 19.1846C39.0051 18.5713 40.4451 18.2646 41.9651 18.2646C43.5651 18.2646 45.0051 18.5846 46.2851 19.2246C47.5651 19.8646 48.6051 20.7446 49.4051 21.8646C50.1785 22.9313 50.6585 24.118 50.8451 25.4246C51.0585 26.7313 51.1651 28.2646 51.1651 30.0246H39.9651ZM42.2451 22.5846C41.6851 22.5846 41.1518 22.8246 40.6451 23.3046C40.1385 23.758 39.8051 24.5713 39.6451 25.7446H44.8851C44.7785 24.678 44.4585 23.8913 43.9251 23.3846C43.4185 22.8513 42.8585 22.5846 42.2451 22.5846ZM67.1436 9.42463C68.1036 9.42463 68.9302 9.4913 69.6236 9.62463C70.3436 9.7313 71.0102 9.8913 71.6236 10.1046C71.6236 10.558 71.6236 11.038 71.6236 11.5446C71.6502 12.0513 71.6636 12.598 71.6636 13.1846C71.6636 13.7713 71.6502 14.398 71.6236 15.0646C71.6236 15.7046 71.6236 16.3046 71.6236 16.8646C70.6102 16.2246 69.3969 15.9046 67.9836 15.9046C66.6502 15.9046 65.5302 16.158 64.6236 16.6646C63.7436 17.1446 63.0236 17.7713 62.4636 18.5446C61.9302 19.318 61.5436 20.1713 61.3036 21.1046C61.0902 22.0113 60.9836 22.878 60.9836 23.7046C60.9836 24.8246 61.1569 25.878 61.5036 26.8646C61.8502 27.8513 62.3302 28.718 62.9436 29.4646C63.5836 30.1846 64.3169 30.758 65.1436 31.1846C65.9969 31.6113 66.9169 31.8246 67.9036 31.8246C68.3569 31.8246 68.9302 31.758 69.6236 31.6246C70.3436 31.4913 71.0102 31.238 71.6236 30.8646C71.6236 31.798 71.6236 32.7713 71.6236 33.7846C71.6502 34.798 71.6636 35.7846 71.6636 36.7446C71.6636 37.758 71.6502 38.7446 71.6236 39.7046C71.6236 40.6646 71.6236 41.6246 71.6236 42.5846C70.1302 42.9046 68.6102 43.0646 67.0636 43.0646C64.7169 43.0646 62.6102 42.678 60.7436 41.9046C58.9036 41.1313 57.3302 40.0246 56.0236 38.5846C54.7436 37.118 53.7569 35.358 53.0636 33.3046C52.3969 31.2246 52.0636 28.9046 52.0636 26.3446C52.0636 23.8913 52.3836 21.638 53.0236 19.5846C53.6636 17.5046 54.6102 15.718 55.8636 14.2246C57.1436 12.7046 58.7169 11.5313 60.5836 10.7046C62.4769 9.8513 64.6636 9.42463 67.1436 9.42463ZM81.8886 18.2646C85.1419 18.2646 87.4619 19.3313 88.8486 21.4646C90.2619 23.598 90.9686 26.6646 90.9686 30.6646C90.9686 34.6913 90.2619 37.7713 88.8486 39.9046C87.4619 42.0113 85.1419 43.0646 81.8886 43.0646C78.6086 43.0646 76.2619 42.0113 74.8486 39.9046C73.4619 37.7713 72.7686 34.6913 72.7686 30.6646C72.7686 26.6646 73.4619 23.598 74.8486 21.4646C76.2619 19.3313 78.6086 18.2646 81.8886 18.2646ZM81.8886 33.6646C82.4219 33.6646 82.8886 33.558 83.2886 33.3446C83.7152 33.1313 84.0619 32.8513 84.3286 32.5046C84.5952 32.158 84.7952 31.7713 84.9286 31.3446C85.0619 30.8913 85.1286 30.4246 85.1286 29.9446C85.1286 29.4646 85.0619 28.998 84.9286 28.5446C84.7952 28.0913 84.5952 27.6913 84.3286 27.3446C84.0619 26.998 83.7152 26.718 83.2886 26.5046C82.8886 26.2913 82.4219 26.1846 81.8886 26.1846C80.7952 26.1846 79.9686 26.5713 79.4086 27.3446C78.8752 28.118 78.6086 28.9846 78.6086 29.9446C78.6086 30.4246 78.6752 30.8913 78.8086 31.3446C78.9419 31.7713 79.1419 32.158 79.4086 32.5046C79.7019 32.8513 80.0486 33.1313 80.4486 33.3446C80.8486 33.558 81.3286 33.6646 81.8886 33.6646ZM130.793 18.7046L124.393 30.0246L131.233 42.6246H124.393L118.833 32.6246H118.553C118.553 33.398 118.553 34.1713 118.553 34.9446C118.553 35.6913 118.553 36.4646 118.553 37.2646C118.58 38.0646 118.606 38.9046 118.633 39.7846C118.66 40.6646 118.686 41.6113 118.713 42.6246H112.113C112.246 39.3446 112.326 35.678 112.353 31.6246C112.38 27.5446 112.393 23.078 112.393 18.2246C112.393 16.598 112.393 15.278 112.393 14.2646C112.393 13.2513 112.393 12.4246 112.393 11.7846C112.393 11.1446 112.38 10.6246 112.353 10.2246C112.353 9.82463 112.34 9.4113 112.313 8.98463H119.113C119.033 11.438 118.966 13.6513 118.913 15.6246C118.86 17.5713 118.806 19.3446 118.753 20.9446C118.726 22.518 118.7 23.9446 118.673 25.2246C118.646 26.478 118.62 27.638 118.593 28.7046H118.873L124.393 18.7046H130.793Z" fill="#E54235"/>
<g filter="url(#filter0_d_6_718)">
<path d="M111.216 31.3412C111.216 37.3975 109.023 40.114 101.347 42.3071C94.7673 44.5003 88.1877 38.4941 88.1877 32.4378C88.1877 26.3815 91.4775 20.3754 100.25 20.3754C106.83 20.3754 111.216 25.285 111.216 31.3412Z" fill="white"/>
<circle cx="101.018" cy="30.5739" r="4.93465" fill="#FFC800"/>
</g>
<g clip-path="url(#clip0_6_718)">
<path fill-rule="evenodd" clip-rule="evenodd" d="M19.7357 20.3935C19.6283 20.4398 19.5128 20.4645 19.3958 20.4661C19.2789 20.4678 19.1628 20.4463 19.0541 20.4031C18.9454 20.3598 18.8463 20.2956 18.7625 20.214C18.6787 20.1324 18.6118 20.0351 18.5656 19.9277L17.1345 16.6078C16.9477 16.1735 16.6289 15.8089 16.2232 15.5659C15.8176 15.3229 15.3458 15.2137 14.8747 15.2539L15.1684 15.9178L17.8479 20.4778C17.9627 20.6811 17.993 20.9212 17.9323 21.1466C17.8717 21.3719 17.725 21.5645 17.5238 21.6827C17.3226 21.8009 17.083 21.8354 16.8566 21.7787C16.6302 21.722 16.4352 21.5786 16.3135 21.3795L13.6339 16.8195L13.1961 16.2396C12.9318 16.6317 12.7976 17.0971 12.8127 17.5698C12.8277 18.0424 12.9912 18.4983 13.2799 18.8729L15.4845 21.7389C15.6222 21.9264 15.681 22.1605 15.6483 22.3908C15.6156 22.6212 15.494 22.8295 15.3095 22.9713C15.125 23.1131 14.8924 23.1771 14.6614 23.1494C14.4304 23.1218 14.2193 23.0048 14.0735 22.8235L11.8689 19.9575C11.2905 19.2052 10.9957 18.2732 11.0363 17.3251C11.0769 16.3771 11.4503 15.4737 12.0908 14.7736L7.45558 8.62692C7.27879 8.39279 7.15353 8.12392 7.08802 7.83795C7.02251 7.55198 7.01824 7.25539 7.07549 6.96765C7.13274 6.67991 7.25021 6.40754 7.42018 6.16842C7.59015 5.9293 7.80879 5.72884 8.06173 5.58021C8.31467 5.43158 8.59619 5.33814 8.8878 5.30602C9.17942 5.27391 9.47452 5.30384 9.75375 5.39387C10.033 5.48389 10.29 5.63196 10.5079 5.82836C10.7259 6.02476 10.8998 6.26504 11.0183 6.53342L14.1321 13.5741C15.0554 13.3552 16.0264 13.4687 16.8743 13.8946C17.7223 14.3206 18.393 15.0317 18.7687 15.9031L20.2004 19.224C20.2936 19.4408 20.297 19.6858 20.2097 19.905C20.1224 20.1243 19.9524 20.3001 19.7357 20.3935Z" fill="#C9C9C9"/>
</g>
<defs>
<filter id="filter0_d_6_718" x="85.1877" y="17.3754" width="31.0283" height="30.3934" filterUnits="userSpaceOnUse" color-interpolation-filters="sRGB">
<feFlood flood-opacity="0" result="BackgroundImageFix"/>
<feColorMatrix in="SourceAlpha" type="matrix" values="0 0 0 0 0 0 0 0 0 0 0 0 0 0 0 0 0 0 127 0" result="hardAlpha"/>
<feOffset dx="1" dy="1"/>
<feGaussianBlur stdDeviation="2"/>
<feComposite in2="hardAlpha" operator="out"/>
<feColorMatrix type="matrix" values="0 0 0 0 0 0 0 0 0 0 0 0 0 0 0 0 0 0 0.1 0"/>
<feBlend mode="normal" in2="BackgroundImageFix" result="effect1_dropShadow_6_718"/>
<feBlend mode="normal" in="SourceGraphic" in2="effect1_dropShadow_6_718" result="shape"/>
</filter>
<clipPath id="clip0_6_718">
<rect width="21.3607" height="21.3607" fill="white" transform="translate(5.37036 1) rotate(14.5609)"/>
</clipPath>
</defs>
</svg>
