<svg width="26" height="26" viewBox="0 0 26 26" fill="none" xmlns="http://www.w3.org/2000/svg">
<path d="M15.1666 23.8333V8.66667M15.1666 23.8333H8.66663C5.60296 23.8333 4.07004 23.8333 3.11888 22.8811C2.16663 21.9299 2.16663 20.397 2.16663 17.3333V8.66667C2.16663 5.603 2.16663 4.07009 3.11888 3.11892C4.07004 2.16667 5.60296 2.16667 8.66663 2.16667C11.7303 2.16667 13.2632 2.16667 14.2144 3.11892C15.1666 4.07009 15.1666 5.603 15.1666 8.66667M15.1666 23.8333H19.5C21.5431 23.8333 22.5636 23.8333 23.1985 23.1985C23.8333 22.5637 23.8333 21.5432 23.8333 19.5V13C23.8333 10.9568 23.8333 9.93634 23.1985 9.30151C22.5636 8.66667 21.5431 8.66667 19.5 8.66667H15.1666M7.04163 11.9167H5.95829M11.375 11.9167H10.2916M7.04163 7.58334H5.95829M7.04163 16.25H5.95829M11.375 7.58334H10.2916M11.375 16.25H10.2916M20.0416 16.25H18.9583M20.0416 11.9167H18.9583" stroke="#A7A7A7" stroke-width="1.5" stroke-linecap="round" stroke-linejoin="round"/>
</svg>
