<svg width="343" height="44" viewBox="0 0 343 44" fill="none" xmlns="http://www.w3.org/2000/svg">
<path d="M25.5306 28.9693C25.6003 29.039 25.6556 29.1217 25.6933 29.2128C25.731 29.3038 25.7504 29.4014 25.7504 29.4999C25.7504 29.5985 25.731 29.6961 25.6933 29.7871C25.6556 29.8781 25.6003 29.9609 25.5306 30.0306C25.4609 30.1002 25.3782 30.1555 25.2872 30.1932C25.1961 30.2309 25.0985 30.2503 25 30.2503C24.9014 30.2503 24.8039 30.2309 24.7128 30.1932C24.6218 30.1555 24.539 30.1002 24.4694 30.0306L16.9694 22.5306C16.8996 22.4609 16.8443 22.3782 16.8066 22.2871C16.7688 22.1961 16.7494 22.0985 16.7494 21.9999C16.7494 21.9014 16.7688 21.8038 16.8066 21.7127C16.8443 21.6217 16.8996 21.539 16.9694 21.4693L24.4694 13.9693C24.6101 13.8286 24.801 13.7495 25 13.7495C25.199 13.7495 25.3899 13.8286 25.5306 13.9693C25.6713 14.11 25.7504 14.3009 25.7504 14.4999C25.7504 14.699 25.6713 14.8898 25.5306 15.0306L18.5603 21.9999L25.5306 28.9693Z" fill="#121212"/>
</svg>
