<svg width="26" height="26" viewBox="0 0 26 26" fill="none" xmlns="http://www.w3.org/2000/svg">
<path d="M9.73263 22.3849H6.16846C4.85546 22.3849 3.79163 21.3211 3.79163 20.0081V13.0163C3.79243 12.5069 3.90206 12.0036 4.11319 11.5401C4.32431 11.0765 4.63205 10.6634 5.01579 10.3285L11.44 4.73309C11.8725 4.35677 12.4266 4.14951 13 4.14951C13.5733 4.14951 14.1274 4.35677 14.56 4.73309L20.9841 10.3296C21.3677 10.6644 21.6754 11.0773 21.8865 11.5407C22.0976 12.004 22.2073 12.5071 22.2083 13.0163V20.0081C22.2083 20.6383 21.958 21.2427 21.5125 21.6884C21.067 22.1341 20.4627 22.3846 19.8325 22.3849H16.5641V15.2555C16.5641 14.2718 15.7668 13.4734 14.782 13.4734H11.5158C10.531 13.4734 9.73371 14.2718 9.73371 15.2555L9.73263 22.3849ZM9.73263 22.3849H16.5652" stroke="#A7A7A7" stroke-width="1.5" stroke-linejoin="round"/>
</svg>
